<?xml version="1.0" encoding="utf-8"?>
<!-- Generator: Adobe Illustrator 22.0.0, SVG Export Plug-In . SVG Version: 6.00 Build 0)  -->
<svg version="1.1" id="Capa_1" xmlns="http://www.w3.org/2000/svg" xmlns:xlink="http://www.w3.org/1999/xlink" x="0px" y="0px"
	 viewBox="0 0 1000 1000" style="enable-background:new 0 0 1000 1000;" xml:space="preserve">
<style type="text/css">
	.st0{display:none;fill:#98D7DE;}
	.st1{display:none;}
	.st2{font-family:'KeepCalm-Medium';}
	.st3{font-size:413.8093px;}
	.st4{fill:#FFFFFF;}
</style>
<rect class="st0" width="1000" height="1000"/>
<text transform="matrix(1 0 0 1 155.125 549.1563)" class="st1 st2 st3">&lt;/&gt;</text>
<g>
	<path class="st4" d="M362.4,732.2L38.3,594v-68l324-137.1v58.6c0,13.9-8.4,26.4-21.3,31.7L143.1,560l198.2,82.4
		c12.8,5.3,21.1,17.8,21.1,31.6V732.2z"/>
	<path class="st4" d="M628.5,243l-178,579.7c-5.4,17.7-20.2,29.1-35.9,27.7l-42.8-3.9l178-579.7c5.4-17.7,20.2-29.1,35.9-27.7
		L628.5,243z"/>
	<path class="st4" d="M962,595.2L638,732.2v-58.1c0-13.9,8.4-26.4,21.2-31.7l198-81.4l-198.1-81.9c-12.8-5.3-21.1-17.8-21.1-31.6
		V389l324,138.2V595.2z"/>
</g>
<image style="overflow:visible;" width="397" height="237" xlink:href="573AF483.jpg"  transform="matrix(1 0 0 1 1140 -352)">
</image>
</svg>
